<svg width="573" height="520" viewBox="0 0 573 520" fill="none" xmlns="http://www.w3.org/2000/svg">
<path d="M502.612 400.107C502.612 380.301 497.587 360.894 488.108 344.093C478.629 327.292 465.078 313.772 448.997 305.073C432.915 296.374 414.949 292.844 397.144 294.885C379.338 296.926 362.408 304.457 348.281 316.62C336.256 301.226 320.74 289.656 303.33 283.102C285.92 276.548 267.246 275.246 249.231 279.331C231.215 283.415 214.51 292.739 200.834 306.342C187.158 319.945 177.006 337.334 171.423 356.721C162.083 347.534 150.866 340.995 138.736 337.666C126.606 334.337 113.927 334.318 101.789 337.61C89.6508 340.902 78.4172 347.407 69.0541 356.565C59.6909 365.723 52.4785 377.26 48.0371 390.185C43.5956 403.109 42.0581 417.034 43.5568 430.761C45.0555 444.488 49.5455 457.607 56.6406 468.99C63.7358 480.373 73.2237 489.678 84.2885 496.106C95.3533 502.534 107.664 505.893 120.161 505.892C121.36 505.892 122.552 505.858 123.738 505.798C124.962 505.856 126.192 505.892 127.43 505.892H417.064C437.904 505.891 457.997 497.306 473.429 481.81C488.861 466.315 498.527 445.018 500.543 422.069C501.921 414.848 502.614 407.487 502.612 400.107Z" fill="#6C63FF"/>
<path d="M503.738 400.995C503.738 381.189 498.712 361.782 489.234 344.981C479.755 328.18 466.204 314.66 450.122 305.961C434.041 297.261 416.075 293.731 398.269 295.773C380.464 297.814 363.534 305.345 349.406 317.508C337.381 302.114 321.865 290.544 304.456 283.99C287.046 277.435 268.372 276.134 250.357 280.218C232.341 284.303 215.635 293.627 201.959 307.23C188.283 320.832 178.131 338.222 172.549 357.609C163.209 348.422 151.991 341.883 139.861 338.554C127.732 335.225 115.053 335.206 102.914 338.498C90.7765 341.79 79.5428 348.295 70.1797 357.453C60.8165 366.611 53.6041 378.148 49.1627 391.073C44.7212 403.997 43.1838 417.922 44.6824 431.649C46.1811 445.376 50.6711 458.495 57.7663 469.878C64.8614 481.26 74.3494 490.566 85.4141 496.994C96.4789 503.422 108.789 506.78 121.287 506.78C122.486 506.78 123.678 506.745 124.864 506.685C126.088 506.744 127.318 506.78 128.555 506.78H418.19C439.03 506.779 459.123 498.194 474.555 482.698C489.987 467.203 499.653 445.906 501.669 422.957C503.046 415.735 503.74 408.375 503.738 400.995V400.995Z" stroke="#3F3D56" stroke-miterlimit="10"/>
<path d="M131.776 325.485C165.342 325.485 192.553 295.38 192.553 258.243C192.553 221.106 165.342 191 131.776 191C98.2105 191 71 221.106 71 258.243C71 295.38 98.2105 325.485 131.776 325.485Z" fill="#6C63FF"/>
<path d="M132.896 111H132.896C124.669 111 118 118.379 118 127.481V160.97C118 170.073 124.669 177.451 132.896 177.451C141.123 177.451 147.792 170.073 147.792 160.97V127.481C147.792 118.379 141.123 111 132.896 111Z" fill="#6C63FF"/>
<path d="M242.01 207.786C249.135 203.235 251.576 193.156 247.463 185.273C243.349 177.39 234.239 174.689 227.114 179.241L200.9 195.985C193.776 200.536 191.335 210.616 195.448 218.499C199.562 226.382 208.672 229.082 215.797 224.531L242.01 207.786Z" fill="#6C63FF"/>
<path d="M22.9005 307.985C15.7757 312.536 13.3346 322.616 17.4481 330.499C21.5616 338.381 30.6719 341.082 37.7966 336.531L64.0104 319.786C71.1351 315.235 73.5762 305.156 69.4628 297.273C65.3493 289.39 56.2389 286.689 49.1142 291.241L22.9005 307.985Z" fill="#6C63FF"/>
<path d="M38.7966 178.241C31.6719 173.689 22.5615 176.39 18.4481 184.273C14.3346 192.156 16.7757 202.235 23.9005 206.786L50.1142 223.531C57.2389 228.082 66.3493 225.381 70.4628 217.499C74.5762 209.616 72.1351 199.536 65.0104 194.985L38.7966 178.241Z" fill="#6C63FF"/>
<path d="M132.47 324.716C166.035 324.716 193.246 294.61 193.246 257.473C193.246 220.336 166.035 190.23 132.47 190.23C98.9037 190.23 71.6932 220.336 71.6932 257.473C71.6932 294.61 98.9037 324.716 132.47 324.716Z" stroke="#3F3D56" stroke-miterlimit="10"/>
<path d="M132.668 110.858H132.668C140.895 110.858 147.564 118.237 147.564 127.339V160.828C147.564 169.931 140.895 177.309 132.668 177.309H132.668C124.441 177.309 117.772 169.931 117.772 160.828V127.339C117.772 118.237 124.441 110.858 132.668 110.858Z" stroke="#3F3D56" stroke-miterlimit="10"/>
<path d="M247.331 184.356L247.331 184.356C243.218 176.473 234.108 173.772 226.983 178.323L200.769 195.068C193.644 199.619 191.203 209.699 195.317 217.582L195.317 217.582C199.43 225.464 208.541 228.165 215.665 223.614L241.879 206.869C249.004 202.318 251.445 192.239 247.331 184.356Z" stroke="#3F3D56" stroke-miterlimit="10"/>
<path d="M17.6078 330.59L17.6078 330.59C21.7212 338.473 30.8316 341.174 37.9563 336.623L64.1701 319.878C71.2948 315.327 73.7359 305.247 69.6224 297.365L69.6224 297.365C65.509 289.482 56.3986 286.781 49.2739 291.332L23.0601 308.077C15.9354 312.628 13.4943 322.708 17.6078 330.59Z" stroke="#3F3D56" stroke-miterlimit="10"/>
<path d="M17.8064 183.975L17.8064 183.975C13.6929 191.858 16.134 201.938 23.2587 206.489L49.4725 223.233C56.5972 227.785 65.7076 225.084 69.821 217.201L69.821 217.201C73.9345 209.318 71.4934 199.239 64.3687 194.687L38.1549 177.943C31.0302 173.392 21.9198 176.092 17.8064 183.975Z" stroke="#3F3D56" stroke-miterlimit="10"/>
<path d="M453.471 381.89L443.005 405.494C443.005 405.494 424.087 402.822 431.735 430.434C431.735 430.434 429.722 451.366 425.697 455.819C421.671 460.273 428.917 489.666 443.408 481.204C451.559 476.445 452.069 470.98 450.954 467.11C449.225 461.339 448.887 455.168 449.975 449.208C451.43 441.674 454.049 432.038 458.704 423.754C467.962 407.276 476.818 391.243 476.818 391.243L453.471 381.89Z" fill="#A0616A"/>
<path d="M427.307 236.705C427.307 236.705 404.363 230.47 396.715 234.924C389.067 239.377 366.525 239.823 366.525 239.823C366.525 239.823 347.607 273.67 352.034 291.038C356.462 308.407 374.978 319.096 374.978 319.096L437.37 319.541L447.433 274.115C447.433 274.115 442.603 242.94 438.578 241.159C434.552 239.377 427.307 236.705 427.307 236.705Z" fill="#3F3D56"/>
<path d="M406.778 119.132C425.674 119.132 440.993 102.184 440.993 81.277C440.993 60.3702 425.674 43.4219 406.778 43.4219C387.882 43.4219 372.563 60.3702 372.563 81.277C372.563 102.184 387.882 119.132 406.778 119.132Z" fill="#2F2E41"/>
<path d="M385.444 113.788C385.444 113.788 389.469 132.493 383.431 134.719C377.393 136.946 372.161 145.853 372.161 145.853L381.016 162.331L411.206 170.793L420.464 160.995L427.307 140.064L420.464 134.719C420.464 134.719 414.023 136.946 413.621 129.82C413.428 124.472 413.563 119.116 414.023 113.788L385.444 113.788Z" fill="#A0616A"/>
<path opacity="0.1" d="M385.444 113.788C385.444 113.788 389.469 132.493 383.431 134.719C377.393 136.946 372.161 145.853 372.161 145.853L381.016 162.331L411.206 170.793L420.464 160.995L427.307 140.064L420.464 134.719C420.464 134.719 414.023 136.946 413.621 129.82C413.428 124.472 413.563 119.116 414.023 113.788L385.444 113.788Z" fill="black"/>
<path d="M400.941 126.035C414.502 126.035 425.496 113.872 425.496 98.8684C425.496 83.8648 414.502 71.7019 400.941 71.7019C387.38 71.7019 376.387 83.8648 376.387 98.8684C376.387 113.872 387.38 126.035 400.941 126.035Z" fill="#A0616A"/>
<path d="M399.533 160.995L376.186 137.391C376.186 137.391 365.72 147.189 364.513 147.189C363.305 147.189 347.607 152.533 347.204 154.76C346.801 156.987 360.89 180.591 360.89 180.591C360.89 180.591 357.67 197.96 360.89 205.531C364.11 213.102 361.695 245.612 361.695 245.612C361.695 245.612 383.029 237.151 394.3 241.159C405.57 245.167 438.578 241.159 438.578 241.159C438.578 241.159 443.408 206.867 441.395 202.413C439.383 197.96 438.98 172.574 438.98 172.574L456.289 151.643C456.289 151.643 452.666 135.61 438.98 134.719C425.294 133.829 416.841 132.938 416.841 132.938L399.533 160.995Z" fill="#2F2E41"/>
<path d="M372.161 270.552C372.161 270.552 327.078 247.839 308.964 237.151C290.85 226.462 263.076 234.924 271.931 258.973C280.787 283.022 330.298 306.626 330.298 306.626C330.298 306.626 346.399 319.986 356.06 319.541C365.72 319.096 379.607 319.318 379.607 319.318L372.161 270.552Z" fill="#3F3D56"/>
<path d="M441.798 273.67C441.798 273.67 522.706 274.56 517.473 307.962C512.24 341.363 481.246 397.032 475.61 398.369C469.975 399.705 449.446 389.907 449.446 386.789C449.446 383.672 469.17 326.221 469.17 326.221L420.866 309.743L441.798 273.67Z" fill="#3F3D56"/>
<path d="M457.094 173.91C457.094 173.91 461.924 225.126 459.509 233.142C457.094 241.159 448.641 262.981 437.773 273.67C426.904 284.358 411.608 338.246 403.155 312.415C394.702 286.585 416.841 272.334 416.841 272.334L439.033 237.789L439.242 181.57L457.094 173.91Z" fill="#A0616A"/>
<path d="M366.525 281.241C366.525 281.241 406.375 296.828 410.803 294.601C415.231 292.374 424.892 300.391 424.892 300.391C429.356 299.333 433.965 299.261 438.455 300.178C442.945 301.095 447.227 302.984 451.056 305.735C463.937 315.087 466.754 325.776 463.937 326.221C461.119 326.667 451.056 321.768 451.056 321.768C451.056 321.768 435.76 318.205 426.502 321.322C417.244 324.44 405.178 317.867 405.178 317.867L356.06 305.735L366.525 281.241Z" fill="#A0616A"/>
<path opacity="0.1" d="M366.525 281.241C366.525 281.241 406.375 296.828 410.803 294.601C415.231 292.374 424.892 300.391 424.892 300.391C429.356 299.333 433.965 299.261 438.455 300.178C442.945 301.095 447.227 302.984 451.056 305.735C463.937 315.087 466.754 325.776 463.937 326.221C461.119 326.667 451.056 321.768 451.056 321.768C451.056 321.768 435.76 318.205 426.502 321.322C417.244 324.44 405.178 317.867 405.178 317.867L356.06 305.735L366.525 281.241Z" fill="black"/>
<path d="M347.204 193.061C347.204 193.061 347.606 248.284 353.644 254.965C359.682 261.645 366.123 270.552 372.161 274.56C378.199 278.568 381.419 287.921 381.419 287.921C381.419 287.921 410.401 334.683 410.803 313.306C411.206 291.929 395.91 275.006 395.91 275.006L392.916 271.851C386.367 265.032 380.445 257.512 375.237 249.399C374.048 247.464 372.604 245.737 370.953 244.276C365.72 239.823 364.513 190.834 364.513 190.834L347.204 193.061Z" fill="#A0616A"/>
<path d="M447.836 146.299L456.289 151.643C456.289 151.643 459.509 175.247 461.119 178.364C462.729 181.481 441.395 189.498 438.175 187.271C434.955 185.044 433.345 163.222 433.345 163.222L447.836 146.299Z" fill="#2F2E41"/>
<path d="M352.437 154.315H347.204C347.204 154.315 341.569 160.995 341.971 175.247C342.374 189.498 337.141 198.405 340.361 199.741C343.581 201.077 359.644 194.005 359.462 195.982C359.28 197.96 367.733 194.397 367.733 194.397L362.097 170.793L352.437 154.315Z" fill="#2F2E41"/>
<path opacity="0.1" d="M311.983 245.612C311.983 245.612 336.538 257.192 343.381 258.973C350.224 260.754 372.34 281.6 372.34 281.6L357.243 306.963C357.243 306.963 341.77 304.844 333.317 303.063C324.864 301.282 274.548 264.317 283.001 258.082C291.455 251.847 311.983 245.612 311.983 245.612Z" fill="black"/>
<path d="M306.951 245.612C306.951 245.612 331.505 257.192 338.348 258.973C345.191 260.754 372.161 281.241 372.161 281.241L358.877 309.743C358.877 309.743 336.738 304.844 328.285 303.063C319.832 301.282 269.516 264.317 277.969 258.082C286.422 251.847 306.951 245.612 306.951 245.612Z" fill="#3F3D56"/>
<path d="M413.42 93.5242C432.316 93.5242 447.634 76.5759 447.634 55.6692C447.634 34.7624 432.316 17.8141 413.42 17.8141C394.523 17.8141 379.205 34.7624 379.205 55.6692C379.205 76.5759 394.523 93.5242 413.42 93.5242Z" fill="#2F2E41"/>
<path d="M423.08 35.6283C431.973 35.6283 439.181 27.6526 439.181 17.8141C439.181 7.97566 431.973 0 423.08 0C414.188 0 406.979 7.97566 406.979 17.8141C406.979 27.6526 414.188 35.6283 423.08 35.6283Z" fill="#2F2E41"/>
</svg>
